<svg width="32" height="32" fill="none" xmlns="http://www.w3.org/2000/svg"><path d="M6 30v-.9723l1.96464-.187c.49771-.0498.82515-.1994.98232-.4487.15717-.2743.23575-.7729.23575-1.4959V5.8795c0-.62327-.09168-1.05955-.27504-1.30886-.15718-.24931-.49771-.39889-1.02162-.44876L6 3.9723V3h18.8605L26 9.7687l-1.1395.2618c-.4453-1.24657-.8906-2.25626-1.3359-3.02911-.4192-.77286-.8907-1.35873-1.4146-1.75762-.4977-.39889-1.074-.67313-1.7289-.82272-.6548-.14958-1.4407-.22437-2.3575-.22437h-3.3399V15.9765h2.9077c.8382 0 1.4669-.0748 1.886-.2244.4191-.1745.7466-.4986.9823-.9723.2358-.4986.4846-1.2216.7466-2.169l1.0216-.1122v8.3393l-1.0216.1496c-.2358-1.0969-.4846-1.9072-.7466-2.4307-.2357-.5236-.5763-.8726-1.0216-1.0471-.4453-.1994-1.074-.2992-1.886-.2992h-2.8684v9.7604c0 .6482.0786 1.1219.2358 1.4211.1833.2742.6024.4363 1.2573.4861l2.6326.1496V30H6Z" fill="#000"/></svg>