<svg
  width="145"
  height="32"
  fill="none"
  xmlns="http://www.w3.org/2000/svg"
>
  <g fill="currentColor">
    <path d="M0 31.4v-1.04l2-.2c.50667-.0533.84-.2133 1-.48.16-.2933.24-.8267.24-1.6V5.6c0-.66667-.09333-1.13333-.28-1.4-.16-.26667-.50667-.42667-1.04-.48L0 3.56V2.52h19.2l1.16 7.24-1.16.28c-.4533-1.33333-.9067-2.41333-1.36-3.24-.4267-.82667-.9067-1.45333-1.44-1.88-.5067-.42667-1.0933-.72-1.76-.88-.6667-.16-1.4667-.24-2.4-.24h-3.4v12.6h2.96c.8533 0 1.4933-.08 1.92-.24.4267-.1867.76-.5333 1-1.04.24-.5333.4933-1.3067.76-2.32l1.04-.12v8.92l-1.04.16c-.24-1.1733-.4933-2.04-.76-2.6-.24-.56-.5867-.9333-1.04-1.12-.4533-.2133-1.0933-.32-1.92-.32H8.84v10.44c0 .6933.08 1.2.24 1.52.18667.2933.61333.4667 1.28.52l2.68.16v1.04H0ZM23.1872 31.4v-1.04l1.92-.24c.4533-.0533.7333-.2133.84-.48.1333-.2667.2-.7333.2-1.4V14.68c0-.9067-.08-1.5333-.24-1.88-.16-.3467-.5467-.5467-1.16-.6l-1.72-.16.12-1.04 7.96-.4.36.24v17.48c0 .6133.0667 1.0533.2 1.32.1333.24.4267.4.88.48l1.92.28v1h-11.28Zm5.12-24.52c-1.04 0-1.8667-.26667-2.48-.8-.6133-.56-.92-1.30667-.92-2.24 0-.90667.3067-1.64.92-2.2.6133-.58667 1.44-.88 2.48-.88 1.0667 0 1.8933.28 2.48.84.6133.56.92 1.30667.92 2.24 0 .90667-.3067 1.64-.92 2.2-.6133.56-1.44.84-2.48.84ZM37.0972 31.4v-1.04l1.72-.2c.4267-.0533.7067-.2.84-.44.1333-.2667.2-.7467.2-1.44V14.6c0-.88-.0933-1.48-.28-1.8-.16-.3467-.5333-.5467-1.12-.6l-1.72-.2.12-1 7.64-.44.32.28.04 3.88h.04c.64-1.4667 1.56-2.5733 2.76-3.32 1.2267-.7467 2.5867-1.12 4.08-1.12 1.44 0 2.64.2667 3.6.8.96.5333 1.68 1.3333 2.16 2.4.5067 1.04.76 2.32.76 3.84v11.2c0 .6133.08 1.0267.24 1.24.16.2133.4933.3467 1 .4l1.6.2v1.04h-10.72v-1l1.48-.2c.48-.0533.7867-.2.92-.44.1333-.24.2-.6533.2-1.24V17.44c0-1.2267-.1067-2.1867-.32-2.88-.1867-.72-.52-1.2267-1-1.52-.48-.2933-1.1333-.44-1.96-.44-.88 0-1.6667.2133-2.36.64-.6933.4267-1.24 1.0267-1.64 1.8-.3733.7733-.56 1.6933-.56 2.76v10.6c0 .6133.0533 1.04.16 1.28.1333.24.4.3867.8.44l1.72.28v1h-10.72ZM70.6012 31.96c-1.1466 0-2.1333-.2-2.9599-.6-.8267-.4-1.4534-1.04-1.88-1.92-.4267-.88-.6401-2.04-.6401-3.48v-13.8h-2.84v-1.04c1.1201-.1067 2.0134-.3867 2.6801-.84.6666-.45333 1.1733-1.13333 1.5199-2.04.3467-.93333.6134-2.14667.8-3.64l2.6801-.36.44.24v6.36h5.68v1.32h-5.68v13.16c0 1.1467.1866 2.0267.56 2.64.4.6133 1.0666.92 2 .92.6399 0 1.2666-.1333 1.8799-.4.6134-.2667 1.1867-.6533 1.72-1.16l.6.8c-.8533 1.2-1.7999 2.1467-2.8399 2.84-1.0134.6667-2.2534 1-3.7201 1ZM88.4987 31.96c-2 0-3.7333-.4-5.1999-1.2-1.4667-.8267-2.6-2.0133-3.4-3.56-.7734-1.5733-1.1601-3.4667-1.1601-5.68 0-2.4.44-4.4267 1.32-6.08.9067-1.68 2.1467-2.96 3.72-3.84 1.5734-.88 3.3734-1.32 5.4-1.32 1.6267 0 3.0267.3067 4.2001.92 1.2.5867 2.1333 1.44 2.7999 2.56.6667 1.0933 1 2.4 1 3.92 0 .4533-.0266.9067-.08 1.36-.0266.4267-.0799.8667-.1599 1.32h-12.64c-.0267 1.8133.2 3.32.68 4.52.48 1.1733 1.1733 2.0533 2.08 2.64.9333.56 2.0133.84 3.24.84 1.1466 0 2.2133-.1733 3.1999-.52 1.0134-.3467 2.0401-.9867 3.0801-1.92l.76.72c-.9867 1.7333-2.2267 3.0533-3.72 3.96-1.4667.9067-3.1734 1.36-5.1201 1.36Zm-4.1999-12.84h7.6c.0533-.32.08-.6533.08-1 .0266-.3467.04-.7067.04-1.08 0-2-.2667-3.4267-.8-4.28-.5067-.8533-1.3067-1.28-2.4001-1.28-.88 0-1.64.2533-2.28.76-.64.48-1.1466 1.28-1.5199 2.4-.3734 1.12-.6134 2.6133-.72 4.48ZM109.901 31.96c-1.946 0-3.64-.4133-5.08-1.24-1.413-.8267-2.52-2.0133-3.32-3.56-.8-1.5733-1.2-3.4533-1.2-5.64 0-2.2667.427-4.24 1.28-5.92.88-1.68 2.107-2.9867 3.68-3.92 1.574-.9333 3.427-1.4 5.56-1.4.934 0 1.774.1067 2.52.32.747.2133 1.4.5067 1.96.88-.293-.8533-.533-1.69333-.72-2.52-.16-.82667-.24-1.61333-.24-2.36 0-.77333.094-1.54667.28-2.32.214-.77333.574-1.48 1.08-2.12.507-.66667 1.214-1.186667 2.12-1.560001C118.755.2 119.928 0 121.341 0c1.067 0 2.174.0799998 3.32.239999 1.174.133334 2.374.333333 3.6.6V14.24h.04c.587-1.2267 1.454-2.1867 2.6-2.88 1.147-.72 2.48-1.08 4-1.08 1.467 0 2.68.28 3.64.84.96.56 1.68 1.36 2.16 2.4.48 1.04.72 2.3067.72 3.8v11.2c0 .5867.067 1 .2 1.24.16.2133.494.3467 1 .4l1.64.2v1.04h-10.72v-1l1.44-.2c.48-.0533.787-.2.92-.44.134-.24.2-.6533.2-1.24V17.44c0-1.1733-.093-2.1067-.28-2.8-.16-.72-.48-1.24-.96-1.56-.48-.32-1.16-.48-2.04-.48-.826 0-1.586.2-2.28.6-.693.4-1.253.9867-1.68 1.76-.4.7733-.6 1.72-.6 2.84v10.6c0 .6133.054 1.04.16 1.28.134.24.4.3867.8.44l1.72.28v1h-10.68v-1.04l1.68-.2c.427-.08.707-.24.84-.48.134-.2667.2-.7333.2-1.4V2.16c-.346-.13333-.733-.22667-1.16-.28-.4-.08-.8-.12-1.2-.12-1.226 0-2.2.21333-2.92.64-.693.4-1.2.97333-1.52 1.72-.293.74667-.44 1.64-.44 2.68 0 1.14667.174 2.29333.52 3.44.374 1.12.734 2.08 1.08 2.88.267.3467.467.72.6 1.12.16.4.24.8133.24 1.24 0 .56-.106 1.0667-.32 1.52-.186.4267-.493.7733-.92 1.04-.426.2667-.96.4-1.6.4-.826 0-1.466-.1867-1.92-.56-.453-.4-.68-.92-.68-1.56 0-.4.12-.8667.36-1.4.267-.56.694-1.32 1.28-2.28-.48-.3733-1.013-.64-1.6-.8-.56-.1867-1.2-.28-1.92-.28-.986 0-1.866.2933-2.64.88-.746.5867-1.333 1.52-1.76 2.8-.426 1.2533-.64 2.8667-.64 4.84 0 2.6933.52 4.7467 1.56 6.16 1.067 1.4133 2.547 2.12 4.44 2.12 1.227 0 2.307-.2 3.24-.6.96-.4267 1.827-.9733 2.6-1.64l.72.76c-.96 1.6533-2.133 2.92-3.52 3.8-1.386.8533-3.04 1.28-4.96 1.28Z" />
  </g>
</svg>